# xmcd
#
# Track frame offsets:
#	150
#	14050
#	37555
#	47410
#	66077
#	79532
#	91187
#	103685
#	117137
#	136000
#	148062
#	161687
#	179112
#	193967
#	203662
#	214125
#
# Disc length: 3004 seconds
#
# Revision: 0
# Processed by: cddbd v1.5.1PL2 Copyright (c) Steve Scherf et al.
# Submitted via: audiograbber 1.83.01
#
DISCID=da0bba10
DTITLE=Various Artist - That's Country CD2
DYEAR=1900
DGENRE=Country
TTITLE0=John Denver - Thank God I'm A Country Boy
TTITLE1=Noel Watson - Waltzing Matilda
TTITLE2=Merle Haggard - Mama Tried
TTITLE3=Kris Kristofferson - Me And Bobby McGee
TTITLE4=Charlie Rich - Behind Closed Doors
TTITLE5=Patsy Cline  - Walking After Mdnight
TTITLE6=Charley Pride - Crystal Chandeliers
TTITLE7=Dolly Parton - Here You Come Again
TTITLE8=Ronnie Milsap - Stranger In My House
TTITLE9=Oak Ridge Boys - Elvira
TTITLE10=Wylie and The Wild West Show - I Remember You
TTITLE11=Ricky Skaggs - Country Boy
TTITLE12=Jeannie C Riley - Harper Valley P T A
TTITLE13=Ned Miller - From A Jack To A King
TTITLE14=Loretta Lynne - You're Lookin' At Country
TTITLE15=Conway Twitty - Hello Darlin'
EXTD=
EXTT0=
EXTT1=
EXTT2=
EXTT3=
EXTT4=
EXTT5=
EXTT6=
EXTT7=
EXTT8=
EXTT9=
EXTT10=
EXTT11=
EXTT12=
EXTT13=
EXTT14=
EXTT15=
PLAYORDER=
